<svg xmlns="http://www.w3.org/2000/svg" xmlns:xlink="http://www.w3.org/1999/xlink" version="1.1" x="0px" y="0px" viewBox="0 0 70.854 56.926249999999996" enable-background="new 0 0 70.854 45.541" xml:space="preserve"><path d="M15.892,8.095c-1,0-1.812,0.812-1.812,1.812s0.812,1.812,1.812,1.812h14.499c0.724-1.298,1.58-2.511,2.55-3.624H15.892z"/><path d="M25.823,21.987c0-1.001-0.812-1.812-1.812-1.812H3.812C2.811,20.176,2,20.987,2,21.987C2,22.988,2.811,23.8,3.812,23.8  h20.199C25.012,23.8,25.823,22.988,25.823,21.987z"/><path d="M15.892,32.257c-1,0-1.812,0.811-1.812,1.812s0.812,1.812,1.812,1.812h17.049c-0.97-1.113-1.826-2.326-2.55-3.624H15.892z"/><path d="M48.904,2.622c-5.232,0-9.983,2.089-13.473,5.473c-1.117,1.084-2.104,2.3-2.936,3.624  c-1.871,2.979-2.958,6.498-2.958,10.267c0,3.771,1.087,7.291,2.959,10.271c0.832,1.324,1.818,2.54,2.936,3.624  c3.489,3.384,8.239,5.473,13.472,5.473c10.678,0,19.365-8.688,19.365-19.366C68.27,11.31,59.582,2.622,48.904,2.622z M48.904,37.109  c-8.336,0-15.121-6.784-15.121-15.123c0-8.337,6.785-15.12,15.121-15.12c8.337,0,15.121,6.783,15.121,15.12  C64.025,30.325,57.241,37.109,48.904,37.109z"/><path d="M48.891,24.109c0.003,0,0.006,0,0.009,0c0.004,0,0.007,0,0.009,0h6.294c1.172,0,2.122-0.95,2.122-2.122  s-0.95-2.122-2.122-2.122h-4.189v-8.487c0-1.173-0.95-2.122-2.122-2.122s-2.122,0.949-2.122,2.122v10.609  C46.769,23.159,47.719,24.109,48.891,24.109z"/><text x="0" y="60.541" fill="#000000" font-size="5px" font-weight="bold" font-family="'Helvetica Neue', Helvetica, Arial-Unicode, Arial, Sans-serif">Created by corpus delicti</text><text x="0" y="65.541" fill="#000000" font-size="5px" font-weight="bold" font-family="'Helvetica Neue', Helvetica, Arial-Unicode, Arial, Sans-serif">from the Noun Project</text></svg>